<?xml version="1.0" encoding="UTF-8"?>
<!DOCTYPE svg PUBLIC "-//W3C//DTD SVG 1.1//EN" "http://www.w3.org/Graphics/SVG/1.1/DTD/svg11.dtd">
<svg xmlns="http://www.w3.org/2000/svg" version="1.1" width="512px" height="512px" style="shape-rendering:geometricPrecision; text-rendering:geometricPrecision; image-rendering:optimizeQuality; fill-rule:evenodd; clip-rule:evenodd" xmlns:xlink="http://www.w3.org/1999/xlink">
<g><path style="opacity:0.991" fill="#fec32f" d="M 232.5,-0.5 C 247.833,-0.5 263.167,-0.5 278.5,-0.5C 368.144,10.3879 435.644,54.7213 481,132.5C 497.695,163.971 507.861,197.304 511.5,232.5C 511.5,247.833 511.5,263.167 511.5,278.5C 508.928,304.12 502.595,328.787 492.5,352.5C 492.667,323.831 492.5,295.165 492,266.5C 490.474,262.307 487.641,259.474 483.5,258C 473.506,257.5 463.506,257.334 453.5,257.5C 453.667,205.166 453.5,152.832 453,100.5C 451.167,94.6667 447.333,90.8333 441.5,89C 327.167,88.3333 212.833,88.3333 98.5,89C 93.6667,91.1667 90.1667,94.6667 88,99.5C 87.5,131.165 87.3334,162.832 87.5,194.5C 68.4971,194.333 49.4971,194.5 30.5,195C 25.3333,197.5 21.5,201.333 19,206.5C 18.5,255.166 18.3333,303.832 18.5,352.5C 8.40506,328.787 2.07172,304.12 -0.5,278.5C -0.5,263.167 -0.5,247.833 -0.5,232.5C 10.3875,142.857 54.7208,75.3573 132.5,30C 163.971,13.3053 197.304,3.1386 232.5,-0.5 Z"/></g>
<g><path style="opacity:0.999" fill="#1d3c5c" d="M 492.5,352.5 C 492.976,372.259 492.476,391.926 491,411.5C 489.5,413 488,414.5 486.5,416C 475.839,416.5 465.172,416.667 454.5,416.5C 441.496,416.667 428.496,416.5 415.5,416C 412.272,414.437 410.105,411.937 409,408.5C 408.5,392.503 408.333,376.503 408.5,360.5C 408.5,346.5 408.5,332.5 408.5,318.5C 326.833,318.5 245.167,318.5 163.5,318.5C 163.5,332.5 163.5,346.5 163.5,360.5C 163.667,375.17 163.5,389.837 163,404.5C 161.193,410.307 157.36,414.141 151.5,416C 119.835,416.5 88.1684,416.667 56.5,416.5C 47.4938,416.666 38.4938,416.5 29.5,416C 24.0264,414.526 20.5264,411.026 19,405.5C 18.5001,387.836 18.3334,370.17 18.5,352.5C 18.3333,303.832 18.5,255.166 19,206.5C 21.5,201.333 25.3333,197.5 30.5,195C 49.4971,194.5 68.4971,194.333 87.5,194.5C 87.3334,162.832 87.5,131.165 88,99.5C 90.1667,94.6667 93.6667,91.1667 98.5,89C 212.833,88.3333 327.167,88.3333 441.5,89C 447.333,90.8333 451.167,94.6667 453,100.5C 453.5,152.832 453.667,205.166 453.5,257.5C 463.506,257.334 473.506,257.5 483.5,258C 487.641,259.474 490.474,262.307 492,266.5C 492.5,295.165 492.667,323.831 492.5,352.5 Z"/></g>
<g><path style="opacity:1" fill="#0ad9aa" d="M 440.5,138.5 C 327.167,138.5 213.833,138.5 100.5,138.5C 100.5,126.833 100.5,115.167 100.5,103.5C 213.833,103.5 327.167,103.5 440.5,103.5C 440.5,115.167 440.5,126.833 440.5,138.5 Z"/></g>
<g><path style="opacity:1" fill="#1a6f8b" d="M 342.5,121.5 C 331.167,121.5 319.833,121.5 308.5,121.5C 308.5,123.5 308.5,125.5 308.5,127.5C 307.532,125.393 307.198,123.059 307.5,120.5C 319.345,120.172 331.012,120.505 342.5,121.5 Z"/></g>
<g><path style="opacity:1" fill="#1f5382" d="M 201.5,120.5 C 201.5,122.833 201.5,125.167 201.5,127.5C 190.167,127.5 178.833,127.5 167.5,127.5C 167.5,125.167 167.5,122.833 167.5,120.5C 178.833,120.5 190.167,120.5 201.5,120.5 Z"/></g>
<g><path style="opacity:1" fill="#1f5382" d="M 238.5,120.5 C 249.833,120.5 261.167,120.5 272.5,120.5C 272.5,122.833 272.5,125.167 272.5,127.5C 261.167,127.5 249.833,127.5 238.5,127.5C 238.5,125.167 238.5,122.833 238.5,120.5 Z"/></g>
<g><path style="opacity:1" fill="#1f5081" d="M 342.5,121.5 C 342.5,123.5 342.5,125.5 342.5,127.5C 331.167,127.5 319.833,127.5 308.5,127.5C 308.5,125.5 308.5,123.5 308.5,121.5C 319.833,121.5 331.167,121.5 342.5,121.5 Z"/></g>
<g><path style="opacity:1" fill="#1f5282" d="M 378.5,120.5 C 389.833,120.5 401.167,120.5 412.5,120.5C 412.5,122.833 412.5,125.167 412.5,127.5C 401.167,127.5 389.833,127.5 378.5,127.5C 378.5,125.167 378.5,122.833 378.5,120.5 Z"/></g>
<g><path style="opacity:1" fill="#109595" d="M 201.5,120.5 C 202.473,122.948 202.806,125.615 202.5,128.5C 190.655,128.828 178.988,128.495 167.5,127.5C 178.833,127.5 190.167,127.5 201.5,127.5C 201.5,125.167 201.5,122.833 201.5,120.5 Z"/></g>
<g><path style="opacity:1" fill="#119294" d="M 238.5,120.5 C 238.5,122.833 238.5,125.167 238.5,127.5C 249.833,127.5 261.167,127.5 272.5,127.5C 261.012,128.495 249.345,128.828 237.5,128.5C 237.194,125.615 237.527,122.948 238.5,120.5 Z"/></g>
<g><path style="opacity:1" fill="#fefefe" d="M 100.5,138.5 C 213.833,138.5 327.167,138.5 440.5,138.5C 440.5,166.5 440.5,194.5 440.5,222.5C 348.167,222.5 255.833,222.5 163.5,222.5C 163.666,216.824 163.499,211.157 163,205.5C 160.768,200.269 156.935,196.769 151.5,195C 134.503,194.5 117.503,194.333 100.5,194.5C 100.5,175.833 100.5,157.167 100.5,138.5 Z"/></g>
<g><path style="opacity:1" fill="#a4a7ae" d="M 71.5,204.5 C 73.9118,204.694 74.9118,206.027 74.5,208.5C 73.1667,208.5 71.8333,208.5 70.5,208.5C 70.4326,207.041 70.7659,205.708 71.5,204.5 Z"/></g>
<g><path style="opacity:1" fill="#a2a6ad" d="M 81.5,205.5 C 87.5368,205.171 93.5368,205.504 99.5,206.5C 99.2907,207.086 98.9574,207.586 98.5,208C 93.1667,208.667 87.8333,208.667 82.5,208C 81.7476,207.329 81.4142,206.496 81.5,205.5 Z"/></g>
<g><path style="opacity:1" fill="#04c19e" d="M 25.5,218.5 C 69.3302,217.501 113.33,217.168 157.5,217.5C 157.5,227.167 157.5,236.833 157.5,246.5C 157.167,246.5 156.833,246.5 156.5,246.5C 156.5,237.167 156.5,227.833 156.5,218.5C 112.833,218.5 69.1667,218.5 25.5,218.5 Z"/></g>
<g><path style="opacity:1" fill="#00daaa" d="M 25.5,218.5 C 69.1667,218.5 112.833,218.5 156.5,218.5C 156.5,227.833 156.5,237.167 156.5,246.5C 112.833,246.5 69.1667,246.5 25.5,246.5C 25.5,237.167 25.5,227.833 25.5,218.5 Z"/></g>
<g><path style="opacity:1" fill="#11daaa" d="M 163.5,222.5 C 255.833,222.5 348.167,222.5 440.5,222.5C 440.5,234.167 440.5,245.833 440.5,257.5C 432.16,257.334 423.827,257.5 415.5,258C 411.403,259.922 409.07,263.088 408.5,267.5C 407.505,279.322 407.172,291.322 407.5,303.5C 326.5,303.5 245.5,303.5 164.5,303.5C 164.5,298.833 164.5,294.167 164.5,289.5C 170.167,289.5 175.833,289.5 181.5,289.5C 181.5,288.167 181.5,286.833 181.5,285.5C 175.5,285.5 169.5,285.5 163.5,285.5C 163.5,283.5 163.5,281.5 163.5,279.5C 175.167,279.5 186.833,279.5 198.5,279.5C 198.5,277.833 198.5,276.167 198.5,274.5C 186.833,274.5 175.167,274.5 163.5,274.5C 163.5,272.5 163.5,270.5 163.5,268.5C 178.833,268.5 194.167,268.5 209.5,268.5C 209.5,258.833 209.5,249.167 209.5,239.5C 194.167,239.5 178.833,239.5 163.5,239.5C 163.5,233.833 163.5,228.167 163.5,222.5 Z"/></g>
<g><path style="opacity:1" fill="#205081" d="M 47.5,231.5 C 52.8333,231.5 58.1667,231.5 63.5,231.5C 63.5,234.167 63.5,236.833 63.5,239.5C 58.1667,239.5 52.8333,239.5 47.5,239.5C 47.5,236.833 47.5,234.167 47.5,231.5 Z"/></g>
<g><path style="opacity:1" fill="#1f5081" d="M 90.5,231.5 C 90.5,234.167 90.5,236.833 90.5,239.5C 85.1667,239.5 79.8333,239.5 74.5,239.5C 74.5,236.833 74.5,234.167 74.5,231.5C 79.8333,231.5 85.1667,231.5 90.5,231.5 Z"/></g>
<g><path style="opacity:1" fill="#205482" d="M 102.5,231.5 C 107.833,231.5 113.167,231.5 118.5,231.5C 118.5,234.5 118.5,237.5 118.5,240.5C 113.167,240.5 107.833,240.5 102.5,240.5C 102.5,237.5 102.5,234.5 102.5,231.5 Z"/></g>
<g><path style="opacity:1" fill="#167f8f" d="M 47.5,231.5 C 47.5,234.167 47.5,236.833 47.5,239.5C 52.8333,239.5 58.1667,239.5 63.5,239.5C 58.0247,240.489 52.358,240.822 46.5,240.5C 46.19,237.287 46.5233,234.287 47.5,231.5 Z"/></g>
<g><path style="opacity:1" fill="#167e8e" d="M 90.5,231.5 C 91.4767,234.287 91.81,237.287 91.5,240.5C 85.642,240.822 79.9753,240.489 74.5,239.5C 79.8333,239.5 85.1667,239.5 90.5,239.5C 90.5,236.833 90.5,234.167 90.5,231.5 Z"/></g>
<g><path style="opacity:1" fill="#17778c" d="M 130.5,231.5 C 130.5,234.167 130.5,236.833 130.5,239.5C 135.5,239.5 140.5,239.5 145.5,239.5C 145.5,236.833 145.5,234.167 145.5,231.5C 146.477,234.287 146.81,237.287 146.5,240.5C 140.833,240.5 135.167,240.5 129.5,240.5C 129.19,237.287 129.523,234.287 130.5,231.5 Z"/></g>
<g><path style="opacity:1" fill="#205081" d="M 130.5,231.5 C 135.5,231.5 140.5,231.5 145.5,231.5C 145.5,234.167 145.5,236.833 145.5,239.5C 140.5,239.5 135.5,239.5 130.5,239.5C 130.5,236.833 130.5,234.167 130.5,231.5 Z"/></g>
<g><path style="opacity:1" fill="#fdd266" d="M 163.5,239.5 C 178.833,239.5 194.167,239.5 209.5,239.5C 209.5,249.167 209.5,258.833 209.5,268.5C 194.167,268.5 178.833,268.5 163.5,268.5C 163.5,258.833 163.5,249.167 163.5,239.5 Z"/></g>
<g><path style="opacity:1" fill="#4288c7" d="M 238.5,239.5 C 258.5,239.5 278.5,239.5 298.5,239.5C 298.5,249.167 298.5,258.833 298.5,268.5C 278.5,268.5 258.5,268.5 238.5,268.5C 238.5,258.833 238.5,249.167 238.5,239.5 Z"/></g>
<g><path style="opacity:1" fill="#fe576b" d="M 326.5,239.5 C 346.5,239.5 366.5,239.5 386.5,239.5C 386.5,249.167 386.5,258.833 386.5,268.5C 366.5,268.5 346.5,268.5 326.5,268.5C 326.5,258.833 326.5,249.167 326.5,239.5 Z"/></g>
<g><path style="opacity:1" fill="#e3f9f5" d="M 25.5,247.5 C 25.5,247.167 25.5,246.833 25.5,246.5C 69.1667,246.5 112.833,246.5 156.5,246.5C 156.833,246.5 157.167,246.5 157.5,246.5C 157.5,270.5 157.5,294.5 157.5,318.5C 157.167,318.5 156.833,318.5 156.5,318.5C 156.5,294.833 156.5,271.167 156.5,247.5C 112.833,247.5 69.1667,247.5 25.5,247.5 Z"/></g>
<g><path style="opacity:1" fill="#fefffe" d="M 25.5,247.5 C 69.1667,247.5 112.833,247.5 156.5,247.5C 156.5,271.167 156.5,294.833 156.5,318.5C 112.833,318.5 69.1667,318.5 25.5,318.5C 25.5,294.833 25.5,271.167 25.5,247.5 Z"/></g>
<g><path style="opacity:1" fill="#8b8c91" d="M 442.5,267.5 C 447.833,267.5 453.167,267.5 458.5,267.5C 458.5,268.5 458.5,269.5 458.5,270.5C 453.167,270.5 447.833,270.5 442.5,270.5C 442.5,269.5 442.5,268.5 442.5,267.5 Z"/></g>
<g><path style="opacity:1" fill="#e4fbf5" d="M 238.5,274.5 C 254.5,274.5 270.5,274.5 286.5,274.5C 286.5,276.167 286.5,277.833 286.5,279.5C 270.5,279.5 254.5,279.5 238.5,279.5C 238.5,277.833 238.5,276.167 238.5,274.5 Z"/></g>
<g><path style="opacity:1" fill="#a3f0df" d="M 163.5,274.5 C 175.167,274.5 186.833,274.5 198.5,274.5C 198.5,276.167 198.5,277.833 198.5,279.5C 186.833,279.5 175.167,279.5 163.5,279.5C 163.5,277.833 163.5,276.167 163.5,274.5 Z"/></g>
<g><path style="opacity:1" fill="#fefffe" d="M 164.5,275.5 C 175.5,275.5 186.5,275.5 197.5,275.5C 197.5,276.5 197.5,277.5 197.5,278.5C 186.5,278.5 175.5,278.5 164.5,278.5C 164.5,277.5 164.5,276.5 164.5,275.5 Z"/></g>
<g><path style="opacity:1" fill="#a5f2e1" d="M 326.5,274.5 C 342.833,274.5 359.167,274.5 375.5,274.5C 375.5,276.167 375.5,277.833 375.5,279.5C 359.167,279.5 342.833,279.5 326.5,279.5C 326.5,277.833 326.5,276.167 326.5,274.5 Z"/></g>
<g><path style="opacity:1" fill="#fefffe" d="M 327.5,275.5 C 343.167,275.5 358.833,275.5 374.5,275.5C 374.5,276.5 374.5,277.5 374.5,278.5C 358.833,278.5 343.167,278.5 327.5,278.5C 327.5,277.5 327.5,276.5 327.5,275.5 Z"/></g>
<g><path style="opacity:1" fill="#fdfefe" d="M 488.5,323.5 C 463.167,323.5 437.833,323.5 412.5,323.5C 412.5,308.833 412.5,294.167 412.5,279.5C 437.833,279.5 463.167,279.5 488.5,279.5C 488.5,294.167 488.5,308.833 488.5,323.5 Z"/></g>
<g><path style="opacity:1" fill="#426691" d="M 472.5,282.5 C 475.833,282.5 479.167,282.5 482.5,282.5C 482.5,283.5 482.5,284.5 482.5,285.5C 479.167,285.5 475.833,285.5 472.5,285.5C 472.5,284.5 472.5,283.5 472.5,282.5 Z"/></g>
<g><path style="opacity:1" fill="#fafbfb" d="M 163.5,285.5 C 169.5,285.5 175.5,285.5 181.5,285.5C 181.5,286.833 181.5,288.167 181.5,289.5C 175.833,289.5 170.167,289.5 164.5,289.5C 164.167,289.5 163.833,289.5 163.5,289.5C 163.5,288.167 163.5,286.833 163.5,285.5 Z"/></g>
<g><path style="opacity:1" fill="#fdfefe" d="M 238.5,285.5 C 249.167,285.5 259.833,285.5 270.5,285.5C 270.5,286.833 270.5,288.167 270.5,289.5C 259.833,289.5 249.167,289.5 238.5,289.5C 238.5,288.167 238.5,286.833 238.5,285.5 Z"/></g>
<g><path style="opacity:1" fill="#fdfefe" d="M 326.5,285.5 C 337.167,285.5 347.833,285.5 358.5,285.5C 358.5,286.833 358.5,288.167 358.5,289.5C 347.833,289.5 337.167,289.5 326.5,289.5C 326.5,288.167 326.5,286.833 326.5,285.5 Z"/></g>
<g><path style="opacity:1" fill="#436692" d="M 472.5,288.5 C 475.833,288.5 479.167,288.5 482.5,288.5C 482.5,289.5 482.5,290.5 482.5,291.5C 479.167,291.5 475.833,291.5 472.5,291.5C 472.5,290.5 472.5,289.5 472.5,288.5 Z"/></g>
<g><path style="opacity:1" fill="#205081" d="M 473.5,295.5 C 476.572,295.183 479.572,295.516 482.5,296.5C 481,296.833 479.5,297.167 478,297.5C 476.014,297.431 474.514,296.765 473.5,295.5 Z"/></g>
<g><path style="opacity:1" fill="#0f8782" d="M 408.5,267.5 C 408.5,279.833 408.5,292.167 408.5,304.5C 326.833,304.5 245.167,304.5 163.5,304.5C 163.5,299.5 163.5,294.5 163.5,289.5C 163.833,289.5 164.167,289.5 164.5,289.5C 164.5,294.167 164.5,298.833 164.5,303.5C 245.5,303.5 326.5,303.5 407.5,303.5C 407.172,291.322 407.505,279.322 408.5,267.5 Z"/></g>
<g><path style="opacity:1" fill="#b1bcc7" d="M 408.5,360.5 C 408.167,360.5 407.833,360.5 407.5,360.5C 407.5,346.833 407.5,333.167 407.5,319.5C 326.5,319.5 245.5,319.5 164.5,319.5C 164.5,333.167 164.5,346.833 164.5,360.5C 164.167,360.5 163.833,360.5 163.5,360.5C 163.5,346.5 163.5,332.5 163.5,318.5C 245.167,318.5 326.833,318.5 408.5,318.5C 408.5,332.5 408.5,346.5 408.5,360.5 Z"/></g>
<g><path style="opacity:1" fill="#1cdcab" d="M 25.5,318.5 C 69.1667,318.5 112.833,318.5 156.5,318.5C 156.5,343.167 156.5,367.833 156.5,392.5C 112.833,392.5 69.1667,392.5 25.5,392.5C 25.5,367.833 25.5,343.167 25.5,318.5 Z"/></g>
<g><path style="opacity:1" fill="#fefefe" d="M 407.5,360.5 C 374.5,360.5 341.5,360.5 308.5,360.5C 283.167,360.5 257.833,360.5 232.5,360.5C 232.167,360.5 231.833,360.5 231.5,360.5C 209.167,360.5 186.833,360.5 164.5,360.5C 164.5,346.833 164.5,333.167 164.5,319.5C 245.5,319.5 326.5,319.5 407.5,319.5C 407.5,333.167 407.5,346.833 407.5,360.5 Z"/></g>
<g><path style="opacity:1" fill="#13dcab" d="M 412.5,323.5 C 437.833,323.5 463.167,323.5 488.5,323.5C 488.5,347.167 488.5,370.833 488.5,394.5C 463.167,394.5 437.833,394.5 412.5,394.5C 412.5,370.833 412.5,347.167 412.5,323.5 Z"/></g>
<g><path style="opacity:1" fill="#fed466" d="M 34.5,327.5 C 51.1667,327.5 67.8333,327.5 84.5,327.5C 84.5,337.167 84.5,346.833 84.5,356.5C 67.8333,356.5 51.1667,356.5 34.5,356.5C 34.5,346.833 34.5,337.167 34.5,327.5 Z"/></g>
<g><path style="opacity:1" fill="#4189c6" d="M 97.5,327.5 C 114.5,327.5 131.5,327.5 148.5,327.5C 148.5,337.5 148.5,347.5 148.5,357.5C 131.5,357.5 114.5,357.5 97.5,357.5C 97.5,347.5 97.5,337.5 97.5,327.5 Z"/></g>
<g><path style="opacity:1" fill="#b1b2b7" d="M 266.5,329.5 C 277.215,328.616 281.049,333.283 278,343.5C 271.783,349.32 266.45,348.654 262,341.5C 260.474,336.239 261.974,332.239 266.5,329.5 Z"/></g>
<g><path style="opacity:1" fill="#fed466" d="M 425.5,334.5 C 442.167,334.5 458.833,334.5 475.5,334.5C 475.5,344.167 475.5,353.833 475.5,363.5C 458.833,363.5 442.167,363.5 425.5,363.5C 425.5,353.833 425.5,344.167 425.5,334.5 Z"/></g>
<g><path style="opacity:0.995" fill="#fec32e" d="M 163.5,360.5 C 163.833,360.5 164.167,360.5 164.5,360.5C 186.833,360.5 209.167,360.5 231.5,360.5C 231.5,371.5 231.5,382.5 231.5,393.5C 225.87,399.631 220.036,405.631 214,411.5C 211.777,415.388 212.277,418.888 215.5,422C 252.167,422.667 288.833,422.667 325.5,422C 328.29,419.79 329.123,416.956 328,413.5C 321.996,406.329 315.496,399.662 308.5,393.5C 308.5,393.167 308.5,392.833 308.5,392.5C 308.5,386.167 308.5,379.833 308.5,373.5C 308.5,369.167 308.5,364.833 308.5,360.5C 341.5,360.5 374.5,360.5 407.5,360.5C 407.833,360.5 408.167,360.5 408.5,360.5C 408.333,376.503 408.5,392.503 409,408.5C 410.105,411.937 412.272,414.437 415.5,416C 428.496,416.5 441.496,416.667 454.5,416.5C 409.092,472.212 350.425,503.879 278.5,511.5C 263.167,511.5 247.833,511.5 232.5,511.5C 160.575,503.879 101.908,472.212 56.5,416.5C 88.1684,416.667 119.835,416.5 151.5,416C 157.36,414.141 161.193,410.307 163,404.5C 163.5,389.837 163.667,375.17 163.5,360.5 Z"/></g>
<g><path style="opacity:1" fill="#e1e3e8" d="M 232.5,360.5 C 257.833,360.5 283.167,360.5 308.5,360.5C 308.5,364.833 308.5,369.167 308.5,373.5C 283.167,373.5 257.833,373.5 232.5,373.5C 232.5,369.167 232.5,364.833 232.5,360.5 Z"/></g>
<g><path style="opacity:1" fill="#fefffe" d="M 72.5,363.5 C 72.5,364.5 72.5,365.5 72.5,366.5C 59.8333,366.5 47.1667,366.5 34.5,366.5C 34.5,365.5 34.5,364.5 34.5,363.5C 47.1667,363.5 59.8333,363.5 72.5,363.5 Z"/></g>
<g><path style="opacity:1" fill="#f1fdfa" d="M 97.5,363.5 C 110.5,363.5 123.5,363.5 136.5,363.5C 136.5,364.833 136.5,366.167 136.5,367.5C 123.5,367.5 110.5,367.5 97.5,367.5C 97.5,366.167 97.5,364.833 97.5,363.5 Z"/></g>
<g><path style="opacity:1" fill="#b5d57a" d="M 425.5,334.5 C 425.5,344.167 425.5,353.833 425.5,363.5C 442.167,363.5 458.833,363.5 475.5,363.5C 458.675,364.497 441.675,364.83 424.5,364.5C 424.173,354.319 424.506,344.319 425.5,334.5 Z"/></g>
<g><path style="opacity:1" fill="#b8f5e7" d="M 72.5,363.5 C 73.4345,364.568 73.7678,365.901 73.5,367.5C 60.3226,367.829 47.3226,367.495 34.5,366.5C 47.1667,366.5 59.8333,366.5 72.5,366.5C 72.5,365.5 72.5,364.5 72.5,363.5 Z"/></g>
<g><path style="opacity:1" fill="#f4fdfb" d="M 424.5,370.5 C 437.5,370.5 450.5,370.5 463.5,370.5C 463.5,371.833 463.5,373.167 463.5,374.5C 450.5,374.5 437.5,374.5 424.5,374.5C 424.5,373.167 424.5,371.833 424.5,370.5 Z"/></g>
<g><path style="opacity:1" fill="#fafefd" d="M 34.5,373.5 C 42.8333,373.5 51.1667,373.5 59.5,373.5C 59.5,374.833 59.5,376.167 59.5,377.5C 51.1667,377.5 42.8333,377.5 34.5,377.5C 34.5,376.167 34.5,374.833 34.5,373.5 Z"/></g>
<g><path style="opacity:1" fill="#f9fefd" d="M 97.5,373.5 C 106.167,373.5 114.833,373.5 123.5,373.5C 123.5,374.833 123.5,376.167 123.5,377.5C 114.833,377.5 106.167,377.5 97.5,377.5C 97.5,376.167 97.5,374.833 97.5,373.5 Z"/></g>
<g><path style="opacity:1" fill="#fefefe" d="M 232.5,373.5 C 257.833,373.5 283.167,373.5 308.5,373.5C 308.5,379.833 308.5,386.167 308.5,392.5C 283.167,392.5 257.833,392.5 232.5,392.5C 232.5,386.167 232.5,379.833 232.5,373.5 Z"/></g>
<g><path style="opacity:1" fill="#f5fdfb" d="M 424.5,380.5 C 433.167,380.5 441.833,380.5 450.5,380.5C 450.5,381.833 450.5,383.167 450.5,384.5C 441.833,384.5 433.167,384.5 424.5,384.5C 424.5,383.167 424.5,381.833 424.5,380.5 Z"/></g>
<g><path style="opacity:1" fill="#05c19d" d="M 156.5,318.5 C 156.833,318.5 157.167,318.5 157.5,318.5C 157.5,343.5 157.5,368.5 157.5,393.5C 113.33,393.832 69.3302,393.499 25.5,392.5C 69.1667,392.5 112.833,392.5 156.5,392.5C 156.5,367.833 156.5,343.167 156.5,318.5 Z"/></g>
<g><path style="opacity:1" fill="#f8e8bf" d="M 231.5,360.5 C 231.833,360.5 232.167,360.5 232.5,360.5C 232.5,364.833 232.5,369.167 232.5,373.5C 232.5,379.833 232.5,386.167 232.5,392.5C 257.833,392.5 283.167,392.5 308.5,392.5C 308.5,392.833 308.5,393.167 308.5,393.5C 282.833,393.5 257.167,393.5 231.5,393.5C 231.5,382.5 231.5,371.5 231.5,360.5 Z"/></g>
<g><path style="opacity:1" fill="#e1e2e7" d="M 231.5,393.5 C 257.167,393.5 282.833,393.5 308.5,393.5C 315.496,399.662 321.996,406.329 328,413.5C 329.123,416.956 328.29,419.79 325.5,422C 288.833,422.667 252.167,422.667 215.5,422C 212.277,418.888 211.777,415.388 214,411.5C 220.036,405.631 225.87,399.631 231.5,393.5 Z"/></g>
<g><path style="opacity:1" fill="#a8aab1" d="M 88.5,399.5 C 97.2745,399.408 99.2745,402.908 94.5,410C 88.1658,411.329 85.3325,408.829 86,402.5C 86.6979,401.309 87.5313,400.309 88.5,399.5 Z"/></g>
<g><path style="opacity:1" fill="#86888f" d="M 447.5,399.5 C 454,398.499 456.5,401.165 455,407.5C 449.995,411.888 446.495,410.888 444.5,404.5C 445.092,402.577 446.092,400.911 447.5,399.5 Z"/></g>
</svg>
